<?xml version="1.0" encoding="UTF-8"?>
<svg id="Capa_1" data-name="Capa 1" xmlns="http://www.w3.org/2000/svg" viewBox="0 0 138.84 49.73">
  <defs>
    <style>
      .cls-1 {
        fill: #0263e2;
      }
    </style>
  </defs>
  <path class="cls-1" d="M123.07,24.11c-4.25,0-7.21-3.49-7.21-7.81s2.96-7.74,7.21-7.74,7.21,3.36,7.21,7.74-2.96,7.81-7.21,7.81M123.07,0c-8.5,0-15.84,6.78-15.84,16.3,0,10.28,7.47,15.55,14.1,15.55.97,0,2.06-.21,2.7-.55l.26.27-9.85,17.26h9.85l12.23-23.36c1.35-2.67,2.32-5.75,2.32-9.18,0-9.66-7.28-16.3-15.77-16.3"/>
  <rect class="cls-1" x="29.71" y="12.81" width="8.37" height="36.03"/>
  <polygon class="cls-1" points="65.4 12.81 57.41 38.22 56.9 38.22 48.85 12.81 40.09 12.81 52.46 48.84 61.92 48.84 74.35 12.81 65.4 12.81"/>
  <path class="cls-1" d="M80.95,27.13c.52-4.52,3.93-8.08,8.82-8.08s8.43,3.22,8.82,8.08h-17.64ZM89.77,11.92c-9.92,0-17.06,7.74-17.06,19.11,0,10.76,7.08,18.7,17.06,18.7,8.75,0,14.81-4.8,16.48-12.12h-7.79c-1.16,2.95-4.31,5-8.43,5-5.41,0-8.95-3.7-9.21-9.18h25.75v-2.81c0-10.14-5.92-18.7-16.8-18.7"/>
  <polygon class="cls-1" points="0 48.84 8.56 48.84 8.56 29.39 25.95 29.39 25.95 21.58 8.56 21.58 8.56 8.77 27.62 8.77 27.62 .89 0 .89 0 48.84"/>
  <path class="cls-1" d="M133.08,45.3h.44l1.27,2.96h.05l1.26-2.96h.44v3.54h-.41v-2.62h-.03l-1.11,2.62h-.36l-1.11-2.62h-.03v2.62h-.41v-3.54ZM131.15,45.73h-.88v-.42h2.19v.42h-.89v3.12h-.42v-3.12Z"/>
</svg>